<svg width="274" height="68" viewBox="0 0 274 68" fill="none" xmlns="http://www.w3.org/2000/svg">
<path d="M0.00034374 40L7.15234 6.4H14.1123L14.1603 22.336L13.7763 26.56H14.5923L14.9763 22.336L18.3363 6.4H24.3843L17.2323 40H10.3203L10.2243 24.064L10.6563 19.84H9.84034L9.40834 24.064L6.04834 40H0.00034374ZM22.416 40L29.568 6.4H35.616L32.928 18.976L30 20.08L29.952 20.272H36.24L39.216 6.4H45.264L38.112 40H32.064L35.136 25.648H31.488L28.464 40H22.416ZM43.2847 40L50.4367 6.4H56.4847L50.7727 33.184L47.8447 34.288L47.7967 34.48H55.5727L54.4207 40H43.2847ZM67.6785 40L74.8305 6.4H83.0385C87.5505 6.4 89.9025 9.184 89.0385 13.312L87.3585 21.232C86.4945 25.36 82.8945 28.144 78.4305 28.144H76.2225L73.7265 40H67.6785ZM74.7345 22.624H79.1985C80.3025 22.624 81.1665 21.952 81.4065 20.848L82.9425 13.696C83.1345 12.592 82.5585 11.92 81.5025 11.92H79.6785L77.6625 21.328L74.7345 22.432V22.624ZM87.7503 40L94.9023 6.4H100.95L95.2383 33.184L92.3103 34.288L92.2623 34.48H100.038L98.8863 40H87.7503ZM102.121 40L113.353 6.4H122.665L119.545 40H113.161L114.265 31.888H110.569L108.217 40H102.121ZM109.273 26.896H114.937L116.377 15.184L117.001 12.4H116.137L115.561 15.184L112.345 25.552L109.321 26.704L109.273 26.896ZM125.928 40L128.472 28.144L127.656 6.4H134.04L133.464 17.584L132.696 21.184H133.512L134.28 17.584L138.504 6.4H144.6L134.52 28.048L131.976 40H125.928ZM148.002 40.576C143.298 40.576 140.754 37.648 141.714 33.28L145.986 13.072C146.946 8.752 150.69 5.824 155.394 5.824C160.098 5.824 162.642 8.752 161.73 13.072L157.41 33.28C156.498 37.648 152.706 40.576 148.002 40.576ZM149.154 35.056C150.258 35.056 151.122 34.384 151.362 33.28L155.634 13.12C155.874 12.016 155.298 11.344 154.194 11.344C153.138 11.344 152.274 12.016 152.034 13.12L147.762 33.28C147.522 34.384 148.098 35.056 149.154 35.056ZM161.007 40L168.159 6.4H179.583L178.431 11.92H173.007L171.519 18.976L168.591 20.08L168.543 20.272H176.079L174.927 25.648H170.079L167.055 40H161.007ZM176.907 40L184.059 6.4H195.483L194.331 11.92H188.907L187.419 18.976L184.491 20.08L184.443 20.272H191.979L190.827 25.648H185.979L182.955 40H176.907ZM199.865 40.576C195.161 40.576 192.665 37.648 193.577 33.28L194.633 28.288H200.681L199.625 33.28C199.385 34.384 199.961 35.056 201.065 35.056C202.121 35.056 202.985 34.384 203.225 33.28L204.089 29.392C204.953 25.408 195.497 24.832 197.129 17.104L197.993 13.072C198.905 8.704 202.601 5.824 207.257 5.824C211.913 5.824 214.457 8.704 213.497 13.072L212.537 17.536H206.489L207.497 13.024C207.641 12.016 207.113 11.344 206.105 11.344C205.049 11.344 204.233 11.968 204.041 13.024L203.321 16.384C202.505 20.416 211.913 20.944 210.281 28.672L209.273 33.28C208.361 37.648 204.569 40.576 199.865 40.576ZM225.78 17.728L227.124 11.392L230.436 6.4H234.324L231.924 10.576H233.364L231.828 17.728H225.78ZM231.499 40L233.275 31.552C234.763 24.544 244.843 22 245.803 17.344L246.763 12.976C246.955 11.968 246.427 11.344 245.419 11.344C244.363 11.344 243.595 11.968 243.403 12.976L242.203 18.352H236.155L237.307 13.024C238.267 8.704 241.915 5.824 246.571 5.824C251.227 5.824 253.723 8.704 252.763 13.024L251.707 18.064C250.171 25.216 240.139 27.76 239.275 31.888L238.987 33.184L236.107 34.288L236.059 34.48H248.347L247.147 40H231.499ZM259.112 40.576C254.456 40.576 251.96 37.696 252.92 33.328L257.24 12.976C258.152 8.656 261.8 5.824 266.456 5.824C271.112 5.824 273.608 8.656 272.696 12.976L271.88 16.768H265.832L266.648 12.976C266.84 11.968 266.312 11.344 265.304 11.344C264.296 11.344 263.48 11.968 263.288 12.976L261.608 20.896L261.32 21.472H261.896L262.136 20.896C263.144 19.84 264.824 19.072 266.648 19.072C269.624 19.072 271.16 21.184 270.44 24.4L268.568 33.328C267.656 37.696 263.864 40.576 259.112 40.576ZM260.36 35.056C261.416 35.056 262.28 34.384 262.52 33.28L264.008 26.32C264.248 25.264 263.672 24.544 262.616 24.544C261.512 24.544 260.696 25.264 260.456 26.32L258.968 33.28C258.728 34.384 259.304 35.056 260.36 35.056Z" fill="url(#paint0_linear_210_17593)"/>
<path d="M1.45584 65L3.32784 53.8H6.99184C8.15451 53.8107 9.15184 54.0667 9.98384 54.568C10.8158 55.0587 11.4238 55.736 11.8078 56.6C12.1918 57.4533 12.2878 58.44 12.0958 59.56C11.9572 60.36 11.6852 61.0907 11.2798 61.752C10.8745 62.4133 10.3625 62.9893 9.74384 63.48C9.13584 63.96 8.43717 64.3333 7.64784 64.6C6.85851 64.8667 6.01584 65 5.11984 65H1.45584ZM4.43184 62.568H5.43984C5.93051 62.568 6.39984 62.488 6.84784 62.328C7.30651 62.168 7.71717 61.9387 8.07984 61.64C8.45317 61.3307 8.76251 60.9733 9.00784 60.568C9.26384 60.1627 9.42917 59.72 9.50384 59.24C9.59984 58.6533 9.54117 58.136 9.32784 57.688C9.11451 57.24 8.77317 56.888 8.30384 56.632C7.83451 56.3653 7.26384 56.232 6.59184 56.232H5.50384L4.43184 62.568ZM28.8971 65L30.7691 53.8H35.0891C35.9104 53.8 36.6144 53.9653 37.2011 54.296C37.7878 54.6267 38.2144 55.0853 38.4811 55.672C38.7584 56.248 38.8331 56.9093 38.7051 57.656C38.5878 58.3707 38.2944 59.0053 37.8251 59.56C37.3558 60.1147 36.7744 60.536 36.0811 60.824L37.8891 65H35.0091L33.4731 61.24C33.4304 61.24 33.3878 61.24 33.3451 61.24C33.3024 61.24 33.2598 61.24 33.2171 61.24H32.0971L31.4731 65H28.8971ZM32.4971 58.872H34.1771C34.5184 58.872 34.8278 58.8133 35.1051 58.696C35.3931 58.5787 35.6224 58.408 35.7931 58.184C35.9638 57.9493 36.0544 57.6667 36.0651 57.336C36.0864 56.984 35.9798 56.7013 35.7451 56.488C35.5104 56.264 35.1744 56.152 34.7371 56.152H32.9451L32.4971 58.872ZM54.6908 65L60.9148 53.8H63.6828L66.1628 65H63.5708L63.1228 62.872H58.7548L57.6028 65H54.6908ZM59.9708 60.6H62.6428L61.8908 57.064L59.9708 60.6ZM83.5452 65L85.4172 53.8H92.8252L92.4412 56.168H87.5932L87.2412 58.328H91.1612L90.7452 60.68H86.8412L86.1212 65H83.5452ZM111.075 65L112.547 56.168H109.283L109.683 53.8H118.771L118.371 56.168H115.123L113.635 65H111.075ZM159.587 65.192C158.509 65.192 157.592 64.984 156.835 64.568C156.077 64.1413 155.501 63.5493 155.107 62.792C154.712 62.0347 154.531 61.1653 154.563 60.184C154.595 59.2987 154.776 58.4613 155.107 57.672C155.448 56.872 155.917 56.168 156.515 55.56C157.112 54.952 157.805 54.4773 158.595 54.136C159.384 53.784 160.248 53.608 161.187 53.608C161.933 53.608 162.595 53.72 163.171 53.944C163.747 54.1573 164.237 54.4507 164.643 54.824C165.048 55.1973 165.363 55.624 165.587 56.104L163.235 57.24C163.107 56.9733 162.931 56.7493 162.707 56.568C162.493 56.376 162.243 56.232 161.955 56.136C161.677 56.0293 161.363 55.976 161.011 55.976C160.531 55.976 160.067 56.0827 159.619 56.296C159.181 56.4987 158.781 56.7867 158.419 57.16C158.067 57.5333 157.784 57.9707 157.571 58.472C157.357 58.9627 157.235 59.5013 157.203 60.088C157.181 60.632 157.267 61.112 157.459 61.528C157.651 61.944 157.939 62.264 158.323 62.488C158.717 62.712 159.192 62.824 159.747 62.824C160.227 62.824 160.664 62.744 161.059 62.584C161.453 62.4133 161.795 62.1787 162.083 61.88C162.371 61.5707 162.595 61.224 162.755 60.84H160.323L160.659 58.856H165.683L165.443 60.296C165.336 60.9147 165.123 61.5173 164.803 62.104C164.483 62.68 164.067 63.2027 163.555 63.672C163.053 64.1413 162.467 64.5147 161.795 64.792C161.123 65.0587 160.387 65.192 159.587 65.192ZM186.84 65.208C185.859 65.208 185.038 65.0267 184.376 64.664C183.715 64.2907 183.246 63.7733 182.968 63.112C182.691 62.44 182.627 61.6507 182.776 60.744L183.928 53.8H186.504L185.352 60.744C185.278 61.1813 185.294 61.5547 185.4 61.864C185.507 62.1733 185.688 62.4133 185.944 62.584C186.211 62.744 186.542 62.824 186.936 62.824C187.406 62.824 187.827 62.7387 188.2 62.568C188.574 62.3867 188.878 62.1413 189.112 61.832C189.358 61.512 189.512 61.1493 189.576 60.744L190.728 53.8H193.304L192.152 60.744C191.992 61.6827 191.678 62.488 191.208 63.16C190.739 63.8213 190.131 64.328 189.384 64.68C188.648 65.032 187.8 65.208 186.84 65.208ZM209.611 65L211.483 53.8H214.059L212.187 65H209.611ZM230.521 65L232.393 53.8H236.057C237.22 53.8107 238.217 54.0667 239.049 54.568C239.881 55.0587 240.489 55.736 240.873 56.6C241.257 57.4533 241.353 58.44 241.161 59.56C241.022 60.36 240.75 61.0907 240.345 61.752C239.94 62.4133 239.428 62.9893 238.809 63.48C238.201 63.96 237.502 64.3333 236.713 64.6C235.924 64.8667 235.081 65 234.185 65H230.521ZM233.497 62.568H234.505C234.996 62.568 235.465 62.488 235.913 62.328C236.372 62.168 236.782 61.9387 237.145 61.64C237.518 61.3307 237.828 60.9733 238.073 60.568C238.329 60.1627 238.494 59.72 238.569 59.24C238.665 58.6533 238.606 58.136 238.393 57.688C238.18 57.24 237.838 56.888 237.369 56.632C236.9 56.3653 236.329 56.232 235.657 56.232H234.569L233.497 62.568ZM257.962 65L259.834 53.8H267.13L266.746 56.168H262.01L261.658 58.216H265.626L265.242 60.504H261.29L260.922 62.632H265.754L265.338 65H257.962Z" fill="#DFE4E7"/>
<defs>
<linearGradient id="paint0_linear_210_17593" x1="135.988" y1="48" x2="135.988" y2="-1.78983e-07" gradientUnits="userSpaceOnUse">
<stop stop-color="#C4C4C4"/>
<stop offset="1" stop-color="#DFE4E7"/>
</linearGradient>
</defs>
</svg>
