<svg width="274" height="74" viewBox="0 0 274 74" fill="none" xmlns="http://www.w3.org/2000/svg">
<path d="M0.0120625 40L7.16406 6.4H14.1241L14.1721 22.336L13.7881 26.56H14.6041L14.9881 22.336L18.3481 6.4H24.3961L17.2441 40H10.3321L10.2361 24.064L10.6681 19.84H9.85206L9.42006 24.064L6.06006 40H0.0120625ZM22.4277 40L29.5797 6.4H35.6277L32.9397 18.976L30.0117 20.08L29.9637 20.272H36.2517L39.2277 6.4H45.2757L38.1237 40H32.0757L35.1477 25.648H31.4997L28.4757 40H22.4277ZM43.2964 40L50.4484 6.4H56.4964L50.7844 33.184L47.8564 34.288L47.8084 34.48H55.5844L54.4324 40H43.2964ZM67.6902 40L74.8422 6.4H83.0502C87.5622 6.4 89.9142 9.184 89.0502 13.312L87.3702 21.232C86.5062 25.36 82.9062 28.144 78.4422 28.144H76.2342L73.7382 40H67.6902ZM74.7462 22.624H79.2102C80.3142 22.624 81.1782 21.952 81.4182 20.848L82.9542 13.696C83.1462 12.592 82.5702 11.92 81.5142 11.92H79.6902L77.6742 21.328L74.7462 22.432V22.624ZM87.7621 40L94.9141 6.4H100.962L95.2501 33.184L92.3221 34.288L92.2741 34.48H100.05L98.8981 40H87.7621ZM102.133 40L113.365 6.4H122.677L119.557 40H113.173L114.277 31.888H110.581L108.229 40H102.133ZM109.285 26.896H114.949L116.389 15.184L117.013 12.4H116.149L115.573 15.184L112.357 25.552L109.333 26.704L109.285 26.896ZM125.94 40L128.484 28.144L127.668 6.4H134.052L133.476 17.584L132.708 21.184H133.524L134.292 17.584L138.516 6.4H144.612L134.532 28.048L131.988 40H125.94ZM148.014 40.576C143.31 40.576 140.766 37.648 141.726 33.28L145.998 13.072C146.958 8.752 150.702 5.824 155.406 5.824C160.11 5.824 162.654 8.752 161.742 13.072L157.422 33.28C156.51 37.648 152.718 40.576 148.014 40.576ZM149.166 35.056C150.27 35.056 151.134 34.384 151.374 33.28L155.646 13.12C155.886 12.016 155.31 11.344 154.206 11.344C153.15 11.344 152.286 12.016 152.046 13.12L147.774 33.28C147.534 34.384 148.11 35.056 149.166 35.056ZM161.018 40L168.17 6.4H179.594L178.442 11.92H173.018L171.53 18.976L168.602 20.08L168.554 20.272H176.09L174.938 25.648H170.09L167.066 40H161.018ZM176.918 40L184.07 6.4H195.494L194.342 11.92H188.918L187.43 18.976L184.502 20.08L184.454 20.272H191.99L190.838 25.648H185.99L182.966 40H176.918ZM199.877 40.576C195.173 40.576 192.677 37.648 193.589 33.28L194.645 28.288H200.693L199.637 33.28C199.397 34.384 199.973 35.056 201.077 35.056C202.133 35.056 202.997 34.384 203.237 33.28L204.101 29.392C204.965 25.408 195.509 24.832 197.141 17.104L198.005 13.072C198.917 8.704 202.613 5.824 207.269 5.824C211.925 5.824 214.469 8.704 213.509 13.072L212.549 17.536H206.501L207.509 13.024C207.653 12.016 207.125 11.344 206.117 11.344C205.061 11.344 204.245 11.968 204.053 13.024L203.333 16.384C202.517 20.416 211.925 20.944 210.293 28.672L209.285 33.28C208.373 37.648 204.581 40.576 199.877 40.576ZM225.792 17.728L227.136 11.392L230.448 6.4H234.336L231.936 10.576H233.376L231.84 17.728H225.792ZM231.51 40L233.286 31.552C234.774 24.544 244.854 22 245.814 17.344L246.774 12.976C246.966 11.968 246.438 11.344 245.43 11.344C244.374 11.344 243.606 11.968 243.414 12.976L242.214 18.352H236.166L237.318 13.024C238.278 8.704 241.926 5.824 246.582 5.824C251.238 5.824 253.734 8.704 252.774 13.024L251.718 18.064C250.182 25.216 240.15 27.76 239.286 31.888L238.998 33.184L236.118 34.288L236.07 34.48H248.358L247.158 40H231.51ZM259.124 40.576C254.468 40.576 251.972 37.696 252.932 33.328L257.252 12.976C258.164 8.656 261.812 5.824 266.468 5.824C271.124 5.824 273.62 8.656 272.708 12.976L271.892 16.768H265.844L266.66 12.976C266.852 11.968 266.324 11.344 265.316 11.344C264.308 11.344 263.492 11.968 263.3 12.976L261.62 20.896L261.332 21.472H261.908L262.148 20.896C263.156 19.84 264.836 19.072 266.66 19.072C269.636 19.072 271.172 21.184 270.452 24.4L268.58 33.328C267.668 37.696 263.876 40.576 259.124 40.576ZM260.372 35.056C261.428 35.056 262.292 34.384 262.532 33.28L264.02 26.32C264.26 25.264 263.684 24.544 262.628 24.544C261.524 24.544 260.708 25.264 260.468 26.32L258.98 33.28C258.74 34.384 259.316 35.056 260.372 35.056Z" fill="#E7E4DF"/>
<path d="M0.801813 71L2.67381 59.8H6.25781C7.37781 59.8107 8.33781 60.0613 9.13781 60.552C9.93781 61.0427 10.5191 61.72 10.8818 62.584C11.2445 63.4373 11.3298 64.4187 11.1378 65.528C11.0098 66.3387 10.7485 67.08 10.3538 67.752C9.95915 68.4133 9.45781 68.9893 8.84981 69.48C8.25248 69.96 7.57515 70.3333 6.81781 70.6C6.06048 70.8667 5.24981 71 4.38581 71H0.801813ZM3.32981 68.952H4.65781C5.16981 68.952 5.66581 68.8613 6.14581 68.68C6.62581 68.488 7.05781 68.2267 7.44181 67.896C7.83648 67.5547 8.16181 67.1653 8.41781 66.728C8.68448 66.28 8.86048 65.7947 8.94581 65.272C9.06315 64.6107 9.00981 64.0293 8.78581 63.528C8.56181 63.016 8.19915 62.6107 7.69781 62.312C7.20715 62.0027 6.61515 61.848 5.92181 61.848H4.51381L3.32981 68.952ZM28.8049 71L30.6769 59.8H34.7729C35.5623 59.8 36.2396 59.96 36.8049 60.28C37.3703 60.6 37.7809 61.0427 38.0369 61.608C38.3036 62.1627 38.3729 62.808 38.2449 63.544C38.1276 64.2587 37.8289 64.8933 37.3489 65.448C36.8689 65.992 36.2716 66.4027 35.5569 66.68L37.4129 71H34.9809L33.3489 67.032C33.2956 67.032 33.2423 67.032 33.1889 67.032C33.1463 67.032 33.1036 67.032 33.0609 67.032H31.6529L30.9969 71H28.8049ZM31.9889 65.032H33.9089C34.2823 65.032 34.6183 64.9627 34.9169 64.824C35.2263 64.6747 35.4769 64.472 35.6689 64.216C35.8716 63.9493 35.9889 63.6347 36.0209 63.272C36.0636 62.824 35.9463 62.4667 35.6689 62.2C35.4023 61.9333 35.0076 61.8 34.4849 61.8H32.5329L31.9889 65.032ZM54.9232 71L61.2112 59.8H63.5792L66.1232 71H63.9152L63.3712 68.536H58.7632L57.4032 71H54.9232ZM59.8192 66.6H62.9712L62.0592 62.536L59.8192 66.6ZM84.2799 71L86.1519 59.8H93.3199L92.9839 61.8H88.0079L87.5599 64.488H91.7039L91.3679 66.488H87.2239L86.4719 71H84.2799ZM112.292 71L113.844 61.8H110.484L110.804 59.8H119.7L119.38 61.8H116.02L114.484 71H112.292ZM161.912 71.192C160.824 71.192 159.891 70.9733 159.112 70.536C158.344 70.088 157.768 69.4747 157.384 68.696C157 67.9067 156.845 67 156.92 65.976C156.984 65.1013 157.192 64.28 157.544 63.512C157.896 62.7333 158.365 62.056 158.952 61.48C159.549 60.8933 160.237 60.4347 161.016 60.104C161.805 59.7733 162.653 59.608 163.56 59.608C164.264 59.608 164.899 59.7147 165.464 59.928C166.04 60.1413 166.531 60.4347 166.936 60.808C167.341 61.1707 167.656 61.5813 167.88 62.04L165.912 63.032C165.773 62.744 165.576 62.4933 165.32 62.28C165.075 62.0667 164.792 61.9013 164.472 61.784C164.152 61.6667 163.805 61.608 163.432 61.608C162.899 61.608 162.387 61.72 161.896 61.944C161.405 62.1573 160.963 62.4613 160.568 62.856C160.173 63.24 159.848 63.6933 159.592 64.216C159.347 64.7387 159.203 65.3093 159.16 65.928C159.096 66.5787 159.171 67.1493 159.384 67.64C159.597 68.1307 159.933 68.5147 160.392 68.792C160.851 69.0587 161.4 69.192 162.04 69.192C162.595 69.192 163.101 69.0853 163.56 68.872C164.029 68.6587 164.429 68.3653 164.76 67.992C165.091 67.6187 165.331 67.192 165.48 66.712H162.952L163.256 65H167.96L167.752 66.312C167.645 66.952 167.427 67.5653 167.096 68.152C166.765 68.7387 166.344 69.2613 165.832 69.72C165.331 70.1787 164.744 70.5413 164.072 70.808C163.411 71.064 162.691 71.192 161.912 71.192ZM189.851 71.224C188.901 71.224 188.107 71.0427 187.467 70.68C186.837 70.3067 186.384 69.7947 186.107 69.144C185.84 68.4827 185.776 67.7093 185.915 66.824L187.083 59.8H189.275L188.107 66.824C188.021 67.3147 188.043 67.736 188.171 68.088C188.299 68.44 188.512 68.712 188.811 68.904C189.12 69.096 189.499 69.192 189.947 69.192C190.448 69.192 190.907 69.096 191.323 68.904C191.739 68.7013 192.08 68.424 192.347 68.072C192.624 67.7093 192.8 67.2933 192.875 66.824L194.043 59.8H196.235L195.067 66.824C194.907 67.7307 194.592 68.5147 194.123 69.176C193.653 69.8373 193.056 70.344 192.331 70.696C191.605 71.048 190.779 71.224 189.851 71.224ZM213.436 71L215.308 59.8H217.5L215.628 71H213.436ZM234.861 71L236.733 59.8H240.317C241.437 59.8107 242.397 60.0613 243.197 60.552C243.997 61.0427 244.579 61.72 244.941 62.584C245.304 63.4373 245.389 64.4187 245.197 65.528C245.069 66.3387 244.808 67.08 244.413 67.752C244.019 68.4133 243.517 68.9893 242.909 69.48C242.312 69.96 241.635 70.3333 240.877 70.6C240.12 70.8667 239.309 71 238.445 71H234.861ZM237.389 68.952H238.717C239.229 68.952 239.725 68.8613 240.205 68.68C240.685 68.488 241.117 68.2267 241.501 67.896C241.896 67.5547 242.221 67.1653 242.477 66.728C242.744 66.28 242.92 65.7947 243.005 65.272C243.123 64.6107 243.069 64.0293 242.845 63.528C242.621 63.016 242.259 62.6107 241.757 62.312C241.267 62.0027 240.675 61.848 239.981 61.848H238.573L237.389 68.952ZM262.864 71L264.736 59.8H271.824L271.488 61.8H266.592L266.16 64.344H270.384L270.064 66.296H265.84L265.376 69H270.352L270.016 71H262.864Z" fill="#A09D96"/>
</svg>
